/* XPM */
static char *_bdb29682a6c46b0a0926804e30db19eaS4Ig2ZfcAmi3Ep7[] = {
/* columns rows colors chars-per-pixel */
"184 32 160 2 ",
"   c #1D1D1D",
".  c gray64",
"X  c white",
"o  c #F6F6F6",
"O  c gray16",
"+  c black",
"@  c gray3",
"#  c #C6C6C6",
"$  c #565656",
"%  c #161616",
"&  c #DFDFDF",
"*  c #909090",
"=  c #353535",
"-  c gray97",
";  c #C5C5C5",
":  c #515151",
">  c #0F0304",
",  c #4F0C10",
"<  c #A31721",
"1  c #C31C27",
"2  c #C31D28",
"3  c #C32630",
"4  c #763A3E",
"5  c #B22F38",
"6  c #2A0C0C",
"7  c #E7E7E7",
"8  c #131313",
"9  c gray50",
"0  c #150304",
"q  c #4A0A0E",
"w  c #801018",
"e  c #B81822",
"r  c #C31924",
"t  c #C31A25",
"y  c #701319",
"u  c #BC3038",
"i  c #811118",
"p  c #520910",
"a  c #4E0A0E",
"s  c #280507",
"d  c #414141",
"f  c #AFAFAF",
"g  c #020000",
"h  c #2C0608",
"j  c #620D12",
"k  c #99141C",
"l  c #C11924",
"z  c #7A131A",
"x  c #680D13",
"c  c #51090F",
"v  c #4F0A0F",
"b  c #200406",
"n  c #010000",
"m  c #0E0E0E",
"M  c #D5D5D5",
"N  c #0A0202",
"B  c #48090D",
"V  c #B11721",
"C  c #C3212B",
"Z  c #5C0C11",
"A  c #47090D",
"S  c #180305",
"D  c gray72",
"F  c #282828",
"G  c #F1F1F1",
"H  c #0E0203",
"J  c #250508",
"K  c #3D090C",
"L  c #5A0D11",
"P  c #93141C",
"I  c #B01822",
"U  c #A61921",
"Y  c #A61922",
"T  c #BB1A25",
"R  c #580D13",
"E  c #500C11",
"W  c #37080B",
"Q  c #0F0203",
"!  c #0F0303",
"~  c #E2E2E2",
"^  c gray6",
"/  c #4B4B4B",
"(  c #FEFEFE",
")  c #C12731",
"_  c #931B23",
"`  c #C3202A",
"'  c #84181F",
"]  c #BB1E29",
"[  c #F3F3F3",
"{  c #2C2C2C",
"}  c gray35",
"|  c #B13038",
" . c #C32C36",
".. c #C31E29",
"X. c #611B1F",
"o. c #BA1822",
"O. c #85181F",
"+. c gray99",
"@. c gray26",
"#. c gray56",
"$. c #B72F37",
"%. c #5A1519",
"&. c #C31B26",
"*. c #561418",
"=. c #979797",
"-. c #060606",
";. c gray83",
":. c gray84",
">. c gray4",
",. c gray12",
"<. c gray94",
"1. c #981C24",
"2. c gray23",
"3. c #FBFBFB",
"4. c #C42832",
"5. c #C22C36",
"6. c gray75",
"7. c #952C32",
"8. c #C31E28",
"9. c #C3242E",
"0. c gray91",
"q. c #181818",
"w. c #090909",
"e. c #C3232E",
"r. c #B1B1B1",
"t. c gray61",
"y. c #511C1F",
"u. c #BF3039",
"i. c gray36",
"p. c #4C4C4C",
"a. c #8D1820",
"s. c #C31C26",
"d. c #B12F38",
"f. c #C32832",
"g. c #EEEEEE",
"h. c #101010",
"j. c #681A1F",
"k. c #A7A7A7",
"l. c #93141D",
"z. c gray34",
"x. c gray44",
"c. c #8D141C",
"v. c gray21",
"b. c gray77",
"n. c #777777",
"m. c #581317",
"M. c #B41721",
"N. c #9E1921",
"B. c #B41822",
"V. c gray17",
"C. c #CBCBCB",
"Z. c #191919",
"A. c #717171",
"S. c gray74",
"D. c gray98",
"F. c #F9F9F9",
"G. c #FDFDFD",
"H. c gray9",
"J. c #3F3F3F",
"K. c #818181",
/* pixels */
"  . X X X X X X X X X X X X X X X X X X X X X X X X X X X X X X X X X X X X X X X X X X X X X X X X X X X X X X X X X X X X X X X X X X X X X X X X X X X X X X X X X X X X X X X X X X X X X X X X X X X X X X X X X X X X X X X X X X X X X X X X X X X X X X X X X X X X X X X X X X X X X X X X X X X X X X X X X X X X X X X X X X X X X X X X X X X X X X X X X X X X o O ",
"+ @ # X X X X X X X X X X X X X X X X X X X X X X X X X X X X X X X X X X X X X X X X X X X X X X X X X X X X X X X X X X X X X X X X X X X X X X X X X X X X X X X X X X X X X X X X X X X X X X X X X X X X X X X X X X X X X X X X X X X X X X X X X X X X X X X X X X X X X X X X X X X X X X X X X X X X X X X X X X X X X X X X X X X X X X X X X X X X X X X X X X X $ + ",
"+ + % & X X X X X X X X X X X X X X X X X X X X X + + + + + + + + + + + + + + + + + + + + + + + + + + + + + + + + + + + + + + + + + + + + + + + + + + + + + + + + + X X X X X X X X X X X X X + + + + + + + + + + + + + + + + + + + + + + + + + + + + + + + + + + + + + + + + + + + + + + + + + + + + + + + + + + + + + X X X X X X X X X X X X X X X X X X X X X X X X X * + + ",
"+ + + = - X X X X X X X X X X X X X X X X X X X X + + + + + + + + + + + + + + + + + + + + + + + + + + + + + + + + + + + + + + + + + + + + + + + + + + + + + + + + + + + X X X X X X X X X X X + + + + + + + + + + + + + + + + + + + + + + + + + + + + + + + + + + + + + + + + + + + + + + + + + + + + + + + + + + + + + X X X X X X X X X X X X X X X X X X X X X X X X ; + + + ",
"+ + + + : X X X X X X X X X X X X X X X X X X X X + + + + + > , < 1 1 1 1 1 1 1 1 1 1 1 1 1 1 1 1 1 1 1 1 1 1 1 1 1 1 1 1 1 1 1 1 1 1 1 1 1 1 1 1 1 1 1 1 2 3 4 + + + + X X X X X X X X X X X + + + 5 1 1 1 1 1 1 1 1 1 1 1 1 1 1 1 1 1 1 1 1 1 1 1 1 1 1 1 1 1 1 1 1 1 1 1 1 1 1 1 1 1 1 1 1 1 1 1 1 1 1 6 + + + + + + X X X X X X X X X X X X X X X X X X X X X X X 7 8 + + + ",
"+ + + + + 9 X X X X X X X X X X X X X X X X X X X X + + + + + + + 0 q w e r r r r r r r r r r r r r r r r r r r r r r r r r r r r r r r r r r r r r r r r r t y + + + + + X X X X X X X X X X + + + u r r r r r r r r r r r r r r r r r r r r r r r r r r r r r r r r r r r r r r r r r r r r r r i p a s + + + + + + X X X X X X X X X X X X X X X X X X X X X X X X d + + + + ",
"+ + + + + + f X X X X X X X X X X X X X X X X X X X + + + + + + + + + + g h j k l r r r r r r r r r r r r r r r r r r r r r r r r r r r r r r r r r r r r r r r z + + + + + + X X X X X X X X + + + u r r r r r r r r r r r r r r r r r r r r r r r r r r r r r r r r r r r r r r r r r r x c v b n + + + + + + + + X X X X X X X X X X X X X X X X X X X X X X X X 9 + + + + + ",
"+ + + + + + m M X X X X X X X X X X X X X X X X X X X + + + + + + + + + + + + + N 0 B V r r r r r r r r r r r r r r r r r r r r r r r r r r r r r r r r r r r r r C + + + + + + X X X X X X X + + + u r r r r r r r r r r r r r r r r r r r r r r r r r r r r r r r r r r r r r r Z c A S + + + + + + + + + + + + X X X X X X X X X X X X X X X X X X X X X X X X D + + + + + + ",
"+ + + + + + + F G X X X X X X X X X X X X X X X X X X X + + + + + + + + + + + + + + + + H J K L r r r r r r r r r t 2 + + + + + + + + + + + + 1 P r r r r r r r r r 1 + + + + + + X X X X X X + + + u r r r r r r r r t I U Y Y Y Y Y Y Y Y Y Y Y U t r r r r r r r r r T R E W Q + + + + + + + + + ! + + + + + X X X X X X X X X X X X X X X X X X X X X X X X ~ ^ + + + + + + ",
"+ + + + + + + + / ( X X X X X X X X X X X X X X X X X X X + + + + + + + + + + + + + + + + + + + + r r r r r r r r ) + + + + + + + + + + + + + + + _ t r r r r r r r r ` + + + + + + X X X X X + + + u r r r r r r r r ' + + + + + + + + + + + + + + + r r r r r r r r ] + + + + + + + + + + + + + + + + + + + X X X X X X X X X X X X X X X X X X X X X X X X [ { + + + + + + + ",
"+ + + + + + + + + } ( X X X X X X X X X X X X X X X X X X + + + + + + + + + + + + + + + + + + + + r r r r r r r r | + + + + + + + + + + + + + + + +  .r r r r r r r r r ..X.+ + + + + X X X X + + + u r r r r r r r r + + + + + + + + + + + + + + + + o.r r r r r r r O.+ + + + + + + + + + + + + + + + + + + X X X X X X X X X X X X X X X X X X X X X X X +.@.+ + + + + + + + ",
"+ + + + + + + + + + #.X X X X X X X X X X X X X X X X X X X + + + + + + + + + + + + + + + + + + + r r r r r r r r $.+ + + + + + + + + + + + + + + + + %.&.r r r r r r r r t *.+ + + + X X X X + + + u r r r r r r r r + + + + + + + + + + + + + + + + o.r r r r r r r O.+ + + + + + + + + + + + + + + + + + X X X X X X X X X X X X X X X X X X X X X X X X =.+ + + + + + + + + ",
"+ + + + + + + + + + -.;.X X X X X X X X X X X X X X X X X X X X X X X X X X X X X X X X + + + + + r r r r r r r r $.+ + + ( X X X X X X X + + + + + + + + r r r r r r r r r r + + + + + X X X + + + u r r r r r r r r + + + + X X X X X X X ( + + + + o.r r r r r r r O.+ + + + X X X X X X X X X X X X X X X X X X X X X X X X X X X X X X X X X X X X X :.>.+ + + + + + + + + ",
"+ + + + + + + + + + + ,.<.X X X X X X X X X X X X X X X X X X X X X X X X X X X X X X X + + + + + r r r r r r r r $.+ + + ( X X X X X X X + + + + + + + + + &.r r r r r r r r r 1.+ + + + + + + + + u r r r r r r r r + + + + X X X X X X X ( + + + + o.r r r r r r r O.+ + + + X X X X X X X X X X X X X X X X X X X X X X X X X X X X X X X X X X X X G F + + + + + + + + + + ",
"+ + + + + + + + + + + + 2.3.X X X X X X X X X X X X X X X X X X X X X X X X X X X X X X + + + + + r r r r r r r r $.+ + + ( X X X X X X X + + + + + + + + + + &.r r r r r r r r r 4.+ + + + + + + + u r r r r r r r r + + + + X X X X X X X ( + + + + o.r r r r r r r O.+ + + + X X X X X X X X X X X X X X X X X X X X X X X X X X X X X X X X X X X X $ + + + + + + + + + + + ",
"+ + + + + + + + + + + + + } X X X X X X X X X X X X X X X X X X X X X X X X X X X X X X + + + + + r r r r r r r r $.+ + + ( X X X X X X X + + + + + + + + + + + ` r r r r r r r r t 5.+ + + + + + + u r r r r r r r r + + + + X X X X X X X ( + + + + o.r r r r r r r O.+ + + + X X X X X X X X X X X X X X X X X X X X X X X X X X X X X X X X X X X 6.+ + + + + + + + + + + + ",
"+ + + + + + + + + + + + + : X X X X X X X X X X X X X X X X X X X X X X X X X X X X X X + + + + + r r r r r r r r $.+ + + ( X X X X X X X + + + + + + + + + + + 7.8.r r r r r r r r t 9.+ + + + + + u r r r r r r r r + + + + X X X X X X X ( + + + + o.r r r r r r r O.+ + + + X X X X X X X X X X X X X X X X X X X X X X X X X X X X X X X X X X X X d + + + + + + + + + + + ",
"+ + + + + + + + + + + + O <.X X X X X X X X X X X X X X X X X X X X X X X X X X X X X X + + + + + r r r r r r r r $.+ + + ( X X X X X X X + + + + + + + + + + + + + 9.r r r r r r r r r 2 + + + + + u r r r r r r r r + + + + X X X X X X X ( + + + + o.r r r r r r r O.+ + + + X X X X X X X X X X X X X X X X X X X X X X X X X X X X X X X X X X X X 0.q.+ + + + + + + + + + ",
"+ + + + + + + + + + + w.M X X X X X X X X X X X X X X X X X X X X X X X X X X X X X X X + + + + + r r r r r r r r $.+ + + ( X X X X X X X + + + + + + + + + + + + + + e.r r r r r r r r r r + + + + u r r r r r r r r + + + + X X X X X X X ( + + + + o.r r r r r r r O.+ + + + X X X X X X X X X X X X X X X X X X X X X X X X X X X X X X X X X X X X X r.+ + + + + + + + + + ",
"+ + + + + + + + + + + t.X X X X X X X X X X X X X X X X X X X X X X X X X X X X X X X X + + + + + r r r r r r r r $.+ + + ( X X X X X X X + + + + + + + + + + + + + + + + r r r r r r r r r t y.+ + u.r r r r r r r r + + + + X X X X X X X ( + + + + o.r r r r r r r O.+ + + + X X X X X X X X X X X X X X X X X X X X X X X X X X X X X X X X X X X X X X i.+ + + + + + + + + ",
"+ + + + + + + + + + p.X X X X X X X X X X X X X X X X X X X X X X X X X X X X X X X X X + + + + + r r r r r r r r $.+ + + ( X X X X X X X + + + + + + + + + + + + + + + + a.t r r r r r r r r s.d.+ f.r r r r r r r r + + + + X X X X X X X ( + + + + o.r r r r r r r O.+ + + + X X X X X X X X X X X X X X X X X X X X X X X X X X X X X X X X X X X X X X g.8 + + + + + + + + ",
"+ + + + + + + + + h.7 X X X X X X X X X X X X X X X X X X X X X X X X X X X X X X X X X + + + + + r r r r r r r r $.+ + + ( X X X X X X X + + + + + + + + + + + + + + + + + j.2 r r r r r r r r t 1 &.r r r r r r r r + + + + X X X X X X X ( + + + + o.r r r r r r r O.+ + + + X X X X X X X X X X X X X X X X X X X X X X X X X X X X X X X X X X X X X X X k.+ + + + + + + + ",
"+ + + + + + + + + f X X X X X X X X X X X X X X X X X X X X X X X X X X X X X X X X X X + + + + + r r r r r r r r $.+ + + ( X X X X X X X + + + + + + + + + + + + + + + + + + + l.r r r r r r r r r r r r r r r r r r + + + + X X X X X X X ( + + + + o.r r r r r r r O.+ + + + X X X X X X X X X X X X X X X X X X X X X X X X X X X X X X X X X X X X X X X X z.+ + + + + + + ",
"+ + + + + + + + x.X X X X X X X X X X X X X X X X X X X X X X X X X X X X X X X X X X X + + + + + r r r r r r r r $.+ + + ( X X X X X X X + + + + + + + + + + + + + + + + + + + + c.r r r r r r r r r r r r r r r r r + + + + X X X X X X X ( + + + + o.r r r r r r r O.+ + + + X X X X X X X X X X X X X X X X X X X X X X X X X X X X X X X X X X X X X X X X g.,.+ + + + + + ",
"+ + + + + + + v.X X X X X X X X X X X X X X X X X X X X X X X X X X X X X X X X X X X X + + + + + r r r r r r r r $.+ + + ( X X X X X X X + + + + + + + + + + + + + + + + + + + + + c.r r r r r r r r r r r r r r r r + + + + X X X X X X X ( + + + + o.r r r r r r r O.+ + + + X X X X X X X X X X X X X X X X X X X X X X X X X X X X X X X X X X X X X X X X X b.+ + + + + + ",
"+ + + + + + h.& X X X X X X X X X X X X X X X X X X X X X X X X X X X X X X X X X X X X + + + + + r r r r r r r r $.+ + + ( X X X X X X X + + + + + + + + + + + + + + + + + + + + + + c.r r r r r r r r r r r r r r r + + + + X X X X X X X ( + + + + o.r r r r r r r O.+ + + + X X X X X X X X X X X X X X X X X X X X X X X X X X X X X X X X X X X X X X X X X X n.+ + + + + ",
"+ + + + + + . X X X X X X X X X X X X X X X X X X X X X X X X X X X X X X X X X X X X X + + + + m.M.M.M.M.M.M.M.r $.+ + + ( X X X X X X X + + + + + + + + + + + + + + + + X X + + + + + N.B.o.o.o.o.o.o.o.o.o.o.o.o.o.+ + + + X X X X X X X ( + + + + o.o.o.o.o.o.o.o.O.+ + + + X X X X X X X X X X X X X X X X X X X X X X X X X X X X X X X X X X X X X X X X X X X V.+ + + + ",
"+ + + + + z.X X X X X X X X X X X X X X X X X X X X X X X X X X X X X X X X X X X X X X + + + + + + + + + + + + + + + + + ( X X X X X X X + + + + + + + + + + + + + + + + X X + + + + + + + + + + + + + + + + + + + + + + + + X X X X X X X ( + + + + + + + + + + + + + + + + + X X X X X X X X X X X X X X X X X X X X X X X X X X X X X X X X X X X X X X X X X X X C.+ + + + ",
"+ + + + Z.g.X X X X X X X X X X X X X X X X X X X X X X X X X X X X X X X X X X X X X X + + + + + + + + + + + + + + + + + ( X X X X X X X + + + + + + + + + + + + + + + + X X X X + + + + + + + + + + + + + + + + + + + + + + X X X X X X X ( + + + + + + + + + + + + + + + + + X X X X X X X X X X X X X X X X X X X X X X X X X X X X X X X X X X X X X X X X X X X X A.+ + + ",
"+ + + + S.X X X X X X X X X X X X X X X X X X X X X X X X X X X X X X X X X X X X X X X X ( D.F.F.F.F.F.F.F.F.F.F.F.F.3.( X X X X X X X X ( 3.F.F.F.F.F.F.F.F.F.F.F.F.D.+.X X X X X ( 3.F.F.F.F.F.F.F.F.F.F.F.F.F.F.F.F.F.3.G.X X X X X X X X X 3.D.F.F.F.F.F.F.F.F.F.F.F.F.G.X X X X X X X X X X X X X X X X X X X X X X X X X X X X X X X X X X X X X X X X X X X X X - O + + ",
"+ + + 9 X X X X X X X X X X X X X X X X X X X X X X X X X X X X X X X X X X X X X X X X X X X X X X X X X X X X X X X X X X X X X X X X X X X X X X X X X X X X X X X X X X X X X X X X X X X X X X X X X X X X X X X X X X X X X X X X X X X X X X X X X X X X X X X X X X X X X X X X X X X X X X X X X X X X X X X X X X X X X X X X X X X X X X X X X X X X X X X X X M w.+ ",
"H.+ J.X X X X X X X X X X X X X X X X X X X X X X X X X X X X X X X X X X X X X X X X X X X X X X X X X X X X X X X X X X X X X X X X X X X X X X X X X X X X X X X X X X X X X X X X X X X X X X X X X X X X X X X X X X X X X X X X X X X X X X X X X X X X X X X X X X X X X X X X X X X X X X X X X X X X X X X X X X X X X X X X X X X X X X X X X X X X X X X X X X X K.+ "
};
